<?xml version="1.0" encoding="UTF-8" standalone="no"?>
<svg
   xmlns:dc="http://purl.org/dc/elements/1.1/"
   xmlns:cc="http://creativecommons.org/ns#"
   xmlns:rdf="http://www.w3.org/1999/02/22-rdf-syntax-ns#"
   xmlns:svg="http://www.w3.org/2000/svg"
   xmlns="http://www.w3.org/2000/svg"
   id="svg8"
   version="1.1"
   viewBox="0 0 46.945228 10.593861"
   height="40.039787"
   width="177.43079">
  <defs
     id="defs2" />
  <metadata
     id="metadata5">
    <rdf:RDF>
      <cc:Work
         rdf:about="">
        <dc:format>image/svg+xml</dc:format>
        <dc:type
           rdf:resource="http://purl.org/dc/dcmitype/StillImage" />
        <dc:title></dc:title>
      </cc:Work>
    </rdf:RDF>
  </metadata>
  <g
     transform="translate(-40.700914,-57.855959)"
     id="layer1">
    <g
       transform="translate(-43.845238,-70.303571)"
       style="font-size:10.58329999999999949px;line-height:1.25;font-family:'Dancing Script';-inkscape-font-specification:'Dancing Script';stroke-width:0.264583;fill:#ffffff"
       id="text12"
       aria-label="Hymn Sheet">
      <path
         d="m 90.938541,128.15963 c -0.169333,0 -0.307062,0.0387 -0.412895,0.11628 -0.09877,0.0705 -0.176096,0.15546 -0.232542,0.25424 -0.04939,0.0917 -0.08857,0.16575 -0.11679,0.22221 -0.07761,0.1905 -0.165807,0.41263 -0.264583,0.66663 -0.09172,0.24695 -0.200629,0.56106 -0.327629,0.94206 -0.119943,0.381 -0.268546,0.86772 -0.444934,1.46038 -0.282223,-0.0282 -0.574595,-0.0494 -0.877982,-0.0636 -0.30339,-0.0141 -0.62838,-0.0212 -0.974101,-0.0212 h -0.27492 c -0.08467,0 -0.16958,0.004 -0.254247,0.0109 l 0.772563,-2.54041 c 0.02117,-0.0706 0.03911,-0.1446 0.05323,-0.22221 0.02117,-0.0776 0.03152,-0.15494 0.03152,-0.23255 0,-0.14816 -0.04194,-0.28261 -0.126605,-0.40256 -0.08467,-0.11994 -0.240345,-0.17983 -0.466122,-0.17983 -0.218722,0 -0.458282,0.0637 -0.719337,0.19069 -0.253999,0.11994 -0.497355,0.28217 -0.730188,0.48679 -0.225777,0.19755 -0.41304,0.4164 -0.561206,0.65629 -0.141111,0.23988 -0.211357,0.47945 -0.211357,0.71933 0,0.20462 0.06317,0.37393 0.19017,0.50798 0.134055,0.127 0.349622,0.19069 0.645955,0.19069 -0.04233,-0.11994 -0.07064,-0.21521 -0.08475,-0.28577 -0.01411,-0.0705 -0.02119,-0.13422 -0.02119,-0.19069 0,-0.16227 0.03538,-0.34522 0.105937,-0.54983 0.07055,-0.21167 0.165827,-0.41309 0.285771,-0.60359 0.119944,-0.19755 0.25008,-0.35979 0.39119,-0.48679 0.148166,-0.127 0.292972,-0.19068 0.434082,-0.19068 0.05644,0 0.09182,0.0109 0.105938,0.032 0.02116,0.0211 0.03152,0.0598 0.03152,0.11627 0,0.0917 -0.01743,0.19079 -0.05271,0.29662 -0.03527,0.10585 -0.0603,0.17609 -0.07442,0.21136 -0.155222,0.4586 -0.282078,0.82934 -0.380856,1.11156 -0.09172,0.28222 -0.165762,0.50055 -0.222208,0.65577 -0.05645,0.14817 -0.0989,0.26467 -0.127124,0.34933 -0.02822,0.0846 -0.05273,0.15541 -0.0739,0.21188 -0.02117,0.0564 -0.04568,0.13376 -0.0739,0.23254 -0.275166,0.0564 -0.49781,0.14464 -0.667143,0.26458 -0.169332,0.11995 -0.253731,0.29306 -0.253731,0.51884 0.105833,-0.007 0.218537,-0.0179 0.338481,-0.032 0.127,-0.0141 0.2435,-0.0245 0.349332,-0.0315 -0.176388,0.54328 -0.328269,1.01963 -0.455269,1.42886 -0.119944,0.40922 -0.222291,0.77235 -0.306958,1.08985 -0.07761,0.3175 -0.144575,0.60659 -0.201021,0.86765 -0.04939,0.26105 -0.09513,0.51856 -0.13746,0.77256 v 5.2e-4 c 0.134056,0 0.296293,-0.0566 0.486792,-0.1695 0.1905,-0.10583 0.324432,-0.28929 0.402043,-0.55035 0.239888,-0.762 0.430431,-1.36849 0.571541,-1.82005 0.141111,-0.45156 0.247255,-0.79398 0.31781,-1.02681 0.07056,-0.23283 0.119575,-0.39506 0.147795,-0.48679 0.02823,-0.0917 0.04617,-0.15163 0.05323,-0.17983 0.211666,-0.0211 0.423436,-0.0353 0.635103,-0.0424 0.211666,-0.007 0.458303,-0.0141 0.740523,-0.0212 0.282221,-0.007 0.638797,-0.0109 1.069187,-0.0109 -0.141113,0.45156 -0.261408,0.8468 -0.360185,1.18546 -0.09878,0.33867 -0.176099,0.63863 -0.232545,0.89969 -0.0635,0.26811 -0.109239,0.50111 -0.137459,0.69866 -0.02117,0.19756 -0.03204,0.37722 -0.03204,0.5395 0,0.34572 0.06369,0.5858 0.190686,0.71986 0.134053,0.14112 0.38069,0.22931 0.740523,0.26458 -0.01411,-0.0847 -0.02826,-0.17286 -0.04237,-0.26458 -0.0071,-0.0847 -0.01033,-0.18373 -0.01033,-0.29663 0,-0.21166 0.01743,-0.48333 0.05271,-0.81493 0.04233,-0.33867 0.106019,-0.73339 0.190686,-1.18494 0.04233,-0.254 0.09515,-0.52946 0.158646,-0.82579 0.0635,-0.29634 0.134263,-0.60666 0.211873,-0.93121 0.141111,0 0.296273,-0.0245 0.465606,-0.0739 0.169331,-0.0565 0.363154,-0.19417 0.581875,-0.41289 -0.155221,0 -0.324536,-0.004 -0.507979,-0.0109 -0.176387,-0.0141 -0.3136,-0.0212 -0.412377,-0.0212 0.119943,-0.46566 0.246801,-0.93494 0.380854,-1.40766 0.134057,-0.47977 0.264708,-0.92075 0.391708,-1.32292 0.134056,-0.40922 0.246758,-0.73697 0.338481,-0.98392 z m 22.855459,0.0103 c -0.46567,0 -0.88869,0.0915 -1.26969,0.27492 -0.381,0.17639 -0.70548,0.40938 -0.97359,0.69866 -0.26811,0.28928 -0.4766,0.5996 -0.62477,0.93121 -0.14111,0.32456 -0.21135,0.6316 -0.21135,0.92088 0,0.32455 0.0811,0.60329 0.24339,0.83612 0.16934,0.23283 0.38439,0.43753 0.64544,0.61392 0.26106,0.17638 0.536,0.3419 0.82527,0.49713 0.28928,0.14816 0.56474,0.30712 0.82579,0.47645 0.26106,0.16228 0.47283,0.34954 0.63511,0.56121 0.16933,0.2046 0.25373,0.45124 0.25373,0.74052 0,0.3175 -0.0985,0.58209 -0.29611,0.79375 -0.1905,0.21167 -0.43765,0.37062 -0.74104,0.47646 -0.29633,0.10583 -0.60337,0.15864 -0.92087,0.15864 -0.36689,0 -0.67341,-0.067 -0.92036,-0.20102 -0.24694,-0.127 -0.43421,-0.29303 -0.56121,-0.49764 -0.11994,-0.21166 -0.17983,-0.43759 -0.17983,-0.67748 0,-0.23283 0.0566,-0.47619 0.1695,-0.73019 0.11994,-0.254 0.29254,-0.50064 0.51832,-0.74052 -0.23989,0 -0.48653,0.0425 -0.74053,0.12712 -0.254,0.0847 -0.46577,0.23603 -0.6351,0.45475 -0.16933,0.21167 -0.25425,0.50785 -0.25425,0.88884 0,0.43039 0.1165,0.79025 0.34933,1.07952 0.23284,0.28928 0.5328,0.50485 0.89969,0.64596 0.37394,0.14111 0.76538,0.21135 1.17461,0.21135 0.35277,0 0.69847,-0.0528 1.03714,-0.15864 0.34572,-0.0988 0.65984,-0.24687 0.94206,-0.44442 0.28222,-0.1905 0.50435,-0.42678 0.66663,-0.709 0.16933,-0.28222 0.25425,-0.60669 0.25425,-0.97359 0,-0.36688 -0.0811,-0.67772 -0.2434,-0.93172 -0.16228,-0.25399 -0.37405,-0.47233 -0.6351,-0.65578 -0.254,-0.18344 -0.52566,-0.34947 -0.81494,-0.49764 -0.28222,-0.14816 -0.55388,-0.29625 -0.81494,-0.44442 -0.254,-0.14816 -0.46197,-0.3104 -0.62425,-0.48679 -0.16228,-0.18344 -0.24339,-0.40229 -0.24339,-0.65629 0,-0.20461 0.0561,-0.43054 0.16898,-0.67748 0.11288,-0.254 0.27184,-0.49355 0.47645,-0.71933 0.21167,-0.22578 0.45882,-0.41304 0.74104,-0.56121 0.28222,-0.14817 0.59255,-0.22221 0.93121,-0.22221 0.22578,0 0.37386,0.0354 0.44442,0.10594 0.0776,0.0706 0.11627,0.16911 0.11627,0.29611 0,0.1411 -0.0316,0.30714 -0.0951,0.49764 -0.0564,0.18345 -0.12721,0.37399 -0.21188,0.57154 -0.0776,0.19755 -0.14785,0.3881 -0.21135,0.57154 -0.0564,0.18344 -0.0847,0.34896 -0.0847,0.49713 0,0.14817 0.0387,0.26846 0.11627,0.36018 0.0776,0.0847 0.19411,0.14457 0.34933,0.17984 0.11995,-0.1905 0.24352,-0.41971 0.37052,-0.68782 0.13406,-0.26811 0.24676,-0.55064 0.33848,-0.84697 0.0917,-0.29634 0.13746,-0.57507 0.13746,-0.83613 0,-0.3316 -0.0985,-0.59947 -0.2961,-0.80408 -0.19756,-0.20462 -0.53998,-0.30696 -1.02681,-0.30696 z m 5.02088,0.0636 c -0.16934,0 -0.36696,0.11978 -0.59273,0.35967 -0.21872,0.23989 -0.4512,0.56108 -0.69815,0.96325 -0.23989,0.39511 -0.47668,0.83608 -0.70952,1.32291 -0.22577,0.48684 -0.43375,0.98443 -0.62425,1.49242 -0.18344,0.508 -0.33153,0.99091 -0.44442,1.44952 -0.10583,0.45861 -0.15864,0.85057 -0.15864,1.17513 0,0.3175 0.0316,0.59572 0.0951,0.8356 0.0706,0.2399 0.18326,0.36019 0.33848,0.36019 h 5.2e-4 c 0.14111,0 0.26417,-0.0708 0.37,-0.21187 0.11289,-0.13406 0.21903,-0.31044 0.31781,-0.52917 0.0988,-0.21872 0.19733,-0.44793 0.29611,-0.68781 0.0988,-0.24695 0.20492,-0.47995 0.31781,-0.69867 0.11289,-0.21872 0.23974,-0.39511 0.38085,-0.52917 0.14111,-0.14111 0.30007,-0.21135 0.47646,-0.21135 0.10584,0 0.19403,0.0316 0.26459,0.0951 0.0776,0.0635 0.11627,0.18 0.11627,0.34933 0,0.14817 -0.025,0.31369 -0.0744,0.49713 -0.0494,0.18344 -0.10218,0.36691 -0.15864,0.55035 -0.0494,0.17639 -0.0739,0.33915 -0.0739,0.48731 0,0.21167 0.0702,0.38755 0.21136,0.52865 0.1411,0.14112 0.3458,0.21188 0.61391,0.21188 0.30339,0 0.58593,-0.0882 0.84698,-0.26459 0.242,-0.16352 0.46462,-0.38091 0.67024,-0.6475 0.0291,0.29447 0.14125,0.54743 0.34727,0.75344 0.24694,0.24695 0.59972,0.37052 1.05833,0.37052 0.39511,0 0.78655,-0.0991 1.17461,-0.29662 0.38805,-0.19756 0.73375,-0.4725 1.03714,-0.82527 0.0353,0.32455 0.16921,0.59949 0.40204,0.82527 0.23284,0.23283 0.56439,0.34933 0.99478,0.34933 0.381,0 0.75121,-0.0953 1.11104,-0.28577 0.35983,-0.1905 0.68811,-0.44801 0.98443,-0.77256 0.0713,-0.0779 0.13906,-0.15885 0.20413,-0.24185 -0.003,0.0535 -0.007,0.10769 -0.007,0.1571 0,0.37394 0.0953,0.65268 0.28577,0.83612 0.1905,0.18344 0.44093,0.27544 0.75138,0.27544 0.33865,0 0.66693,-0.0991 0.98443,-0.29662 0.3175,-0.1905 0.61039,-0.45509 0.8785,-0.79375 0.27516,-0.33867 0.50437,-0.71596 0.68781,-1.13224 l -0.14831,-0.10593 c -0.27516,0.55032 -0.59963,0.98802 -0.97358,1.31258 -0.36689,0.31749 -0.72674,0.47594 -1.07952,0.47594 -0.19756,0 -0.34237,-0.0599 -0.43408,-0.17983 -0.0917,-0.11995 -0.13746,-0.32465 -0.13746,-0.61392 0,-0.34573 0.0528,-0.69851 0.15864,-1.05834 0.11289,-0.36689 0.24354,-0.72294 0.39171,-1.06866 h 0.0636 0.0636 c 0.29634,-0.007 0.60666,-0.0212 0.93121,-0.0424 0.32456,-0.0212 0.68062,-0.0495 1.06867,-0.0847 v -0.34933 c -0.26105,0.0282 -0.51856,0.0494 -0.77256,0.0636 -0.24695,0.007 -0.52569,0.0109 -0.83612,0.0109 h -0.15865 -0.16898 c 0.19755,-0.39511 0.40173,-0.76583 0.61339,-1.11156 0.21167,-0.35277 0.38807,-0.65981 0.52917,-0.92087 0.14817,-0.26105 0.22221,-0.46196 0.22221,-0.60306 0,-0.0988 -0.0316,-0.17281 -0.0951,-0.22221 -0.0635,-0.0565 -0.13047,-0.0847 -0.20102,-0.0847 -0.11995,0 -0.25768,0.0811 -0.4129,0.24339 -0.15522,0.15523 -0.32074,0.37028 -0.49713,0.64544 -0.16933,0.27517 -0.34244,0.58929 -0.51883,0.94206 -0.16933,0.34573 -0.32777,0.70558 -0.47594,1.07953 l -0.23306,-0.0212 c -0.0705,-0.007 -0.16203,-0.0174 -0.27492,-0.0315 v 0.32762 c 0.0635,0.0282 0.1267,0.0494 0.19017,0.0636 0.0705,0.007 0.13044,0.0179 0.17983,0.032 -0.16933,0.45861 -0.31034,0.90286 -0.42322,1.33325 -0.0282,0.11484 -0.0516,0.22386 -0.0724,0.32866 -0.1158,0.16819 -0.24515,0.33038 -0.38964,0.48628 -0.26106,0.28222 -0.54687,0.51142 -0.85731,0.68781 -0.30339,0.17639 -0.60664,0.26458 -0.91003,0.26458 -0.22577,0 -0.39508,-0.0457 -0.50798,-0.13746 -0.11288,-0.0988 -0.19072,-0.21528 -0.23306,-0.34933 -0.0353,-0.13406 -0.0527,-0.26419 -0.0527,-0.39119 v -0.13798 c 0.007,-0.0423 0.0141,-0.081 0.0212,-0.11627 0.43039,-0.0494 0.83598,-0.15502 1.21698,-0.31729 0.38806,-0.16934 0.70218,-0.38818 0.94206,-0.65629 0.24695,-0.26811 0.37052,-0.57516 0.37052,-0.92088 0,-0.28928 -0.0811,-0.47982 -0.24339,-0.57154 -0.15522,-0.0917 -0.32833,-0.13746 -0.51883,-0.13746 -0.28928,0 -0.57509,0.0708 -0.85732,0.21188 -0.27516,0.14111 -0.53267,0.32785 -0.77256,0.56068 -0.23283,0.23284 -0.42994,0.49035 -0.59221,0.77257 -0.16232,0.28222 -0.27553,0.56804 -0.339,0.85731 -0.2681,0.36689 -0.58222,0.67393 -0.94206,0.92087 -0.35278,0.23989 -0.71592,0.35967 -1.08986,0.35967 -0.23283,0 -0.40921,-0.0457 -0.52916,-0.13746 -0.11289,-0.0917 -0.19073,-0.20114 -0.23306,-0.32814 -0.0423,-0.13406 -0.0631,-0.26471 -0.0631,-0.39171 v -0.14831 c 0.007,-0.0494 0.0141,-0.0881 0.0212,-0.11628 0.3175,-0.0353 0.6311,-0.10931 0.94154,-0.2222 0.3175,-0.11289 0.60712,-0.2577 0.86817,-0.43409 0.26105,-0.17638 0.46902,-0.37728 0.62425,-0.60306 0.15522,-0.23283 0.23306,-0.47998 0.23306,-0.74104 0,-0.28222 -0.0816,-0.46897 -0.24391,-0.56069 -0.15522,-0.0917 -0.32454,-0.13746 -0.50798,-0.13746 -0.33867,0 -0.67022,0.0985 -0.99477,0.29611 -0.32456,0.19049 -0.62073,0.44093 -0.88884,0.75137 -0.26811,0.30339 -0.48316,0.62787 -0.64544,0.97359 -0.0969,0.21588 -0.15996,0.42419 -0.19637,0.62631 -0.0366,0.0495 -0.0734,0.099 -0.11214,0.14677 -0.2046,0.254 -0.41258,0.45817 -0.62425,0.6134 -0.20461,0.15522 -0.3848,0.23306 -0.54002,0.23306 -0.0776,0 -0.14455,-0.0245 -0.20102,-0.0739 -0.0565,-0.0494 -0.0847,-0.13758 -0.0847,-0.26458 0,-0.15522 0.0354,-0.31798 0.10594,-0.48731 0.0776,-0.17639 0.15166,-0.36314 0.22221,-0.56069 0.0776,-0.19756 0.11627,-0.40933 0.11627,-0.6351 0,-0.16229 -0.0278,-0.32072 -0.0842,-0.47594 -0.0564,-0.16228 -0.15171,-0.29673 -0.28577,-0.40257 -0.13405,-0.11288 -0.32132,-0.16898 -0.56121,-0.16898 -0.28222,0 -0.53265,0.0773 -0.75137,0.23255 -0.21872,0.14817 -0.40927,0.3387 -0.57154,0.57154 -0.16228,0.22578 -0.30001,0.45878 -0.4129,0.69866 -0.10587,0.23284 -0.19026,0.43753 -0.25373,0.61392 -0.0635,0.17639 -0.10924,0.28581 -0.13746,0.32815 0,-0.0353 -0.004,-0.0707 -0.0109,-0.10594 v -0.11679 c 0,-0.17639 0.0109,-0.35606 0.032,-0.5395 0.0212,-0.18345 0.056,-0.37726 0.10542,-0.58188 0.0564,-0.21166 0.13049,-0.43759 0.22221,-0.67748 0.26106,-0.15522 0.512,-0.35991 0.75189,-0.61391 0.24694,-0.254 0.47235,-0.53274 0.67696,-0.83613 0.21167,-0.31044 0.39513,-0.62456 0.55035,-0.94206 0.15522,-0.3175 0.27552,-0.61367 0.36019,-0.88883 0.0917,-0.28222 0.13746,-0.5185 0.13746,-0.709 0,-0.17639 -0.0387,-0.3457 -0.11628,-0.50798 -0.0776,-0.16228 -0.19083,-0.2434 -0.33899,-0.2434 z m -0.0527,0.99477 v 0.0212 0.0103 c -0.007,0.0988 -0.0425,0.24031 -0.10594,0.42375 -0.0635,0.18344 -0.1517,0.39142 -0.26458,0.62425 -0.10584,0.22578 -0.23269,0.46206 -0.38086,0.709 -0.1411,0.23989 -0.29627,0.47289 -0.4656,0.69867 -0.16933,0.22578 -0.34572,0.4196 -0.52917,0.58187 0.127,-0.381 0.27836,-0.755 0.45475,-1.12189 0.18344,-0.36689 0.36364,-0.69464 0.54002,-0.98392 0.18345,-0.29633 0.34189,-0.52933 0.47594,-0.69867 0.14112,-0.17639 0.2331,-0.26458 0.27544,-0.26458 z m -20.796153,3.04788 c -0.17639,0 -0.35606,0.0457 -0.5395,0.13746 -0.17639,0.0917 -0.35657,0.2153 -0.54002,0.37052 -0.17639,0.15522 -0.34898,0.33161 -0.51831,0.52917 -0.16228,0.1905 -0.317959,0.38483 -0.466126,0.58239 0.04234,-0.16934 0.07772,-0.32122 0.105937,-0.45527 0.02822,-0.13405 0.04238,-0.2364 0.04238,-0.30696 0,-0.10587 -0.03538,-0.19078 -0.105936,-0.25425 -0.07056,-0.0635 -0.154953,-0.0951 -0.25373,-0.0951 -0.09878,0 -0.215278,0.0316 -0.349335,0.0951 -0.134054,0.0564 -0.211894,0.12393 -0.233061,0.20154 -0.05644,0.22577 -0.123409,0.49036 -0.20102,0.79375 -0.06931,0.27094 -0.134757,0.53407 -0.198437,0.79375 -0.136525,0.2155 -0.289142,0.4005 -0.46147,0.55035 -0.3175,0.27517 -0.624544,0.47279 -0.920875,0.59273 0.148167,-0.40216 0.282099,-0.80447 0.402042,-1.20664 0.119944,-0.40217 0.215215,-0.75495 0.285772,-1.05833 0.07761,-0.31044 0.116271,-0.51842 0.116271,-0.62426 -0.07056,-0.0141 -0.130448,-0.025 -0.179835,-0.032 -0.04938,-0.007 -0.102198,-0.0108 -0.158647,-0.0108 -0.162277,0 -0.289131,0.0495 -0.380854,0.14831 -0.08466,0.0988 -0.145071,0.20821 -0.180351,0.32815 -0.03527,0.11289 -0.05978,0.22231 -0.0739,0.32814 -0.01411,0.10583 -0.02826,0.18367 -0.04237,0.23307 -0.127,0.2046 -0.271288,0.40551 -0.433565,0.60306 -0.155223,0.19756 -0.317976,0.35979 -0.487309,0.48679 -0.162277,0.127 -0.320718,0.19069 -0.475941,0.19069 -0.119943,0 -0.201062,-0.0392 -0.243395,-0.11679 -0.04233,-0.0776 -0.06356,-0.16909 -0.06356,-0.27492 0,-0.13405 0.02123,-0.29302 0.06356,-0.47646 0.04939,-0.18344 0.109278,-0.37019 0.179835,-0.56069 0.07055,-0.19755 0.144597,-0.37394 0.222207,-0.52916 0.07761,-0.16228 0.148373,-0.28586 0.211873,-0.37052 -0.02117,-0.0635 -0.0707,-0.1201 -0.148312,-0.1695 -0.07761,-0.0565 -0.158729,-0.0984 -0.243395,-0.12661 -0.07761,-0.0353 -0.137499,-0.0532 -0.179832,-0.0532 -0.08467,0 -0.183735,0.0849 -0.296625,0.25424 -0.112887,0.16228 -0.222313,0.37026 -0.328144,0.62425 -0.09878,0.24695 -0.183176,0.50118 -0.253733,0.76223 -0.0635,0.26106 -0.09508,0.48318 -0.09508,0.66663 0,0.21872 0.04574,0.3951 0.137459,0.52916 0.09878,0.12698 0.218556,0.21846 0.359667,0.27492 0.141112,0.0494 0.275044,0.0744 0.402042,0.0744 0.30339,0 0.578847,-0.11651 0.825791,-0.34934 0.246943,-0.23283 0.479425,-0.5012 0.698148,-0.8046 -0.07056,0.26812 -0.154953,0.561 -0.25373,0.8785 -0.09172,0.31044 -0.176639,0.56795 -0.254249,0.77256 -0.225777,0.10584 -0.462058,0.21906 -0.709001,0.339 -0.239887,0.127 -0.465296,0.26421 -0.67696,0.41238 -0.211667,0.15523 -0.384776,0.32126 -0.518832,0.49764 -0.134054,0.18344 -0.201023,0.38814 -0.201023,0.61392 0,0.23988 0.07404,0.41248 0.22221,0.51831 0.155221,0.11289 0.321255,0.1695 0.497645,0.1695 0.28222,0 0.546806,-0.1165 0.79375,-0.34933 0.246943,-0.22578 0.479427,-0.53282 0.698148,-0.92088 0.225777,-0.38805 0.434268,-0.81107 0.624768,-1.26968 0.275164,-0.11994 0.546309,-0.27183 0.814419,-0.45527 0.200287,-0.13705 0.385183,-0.29559 0.553972,-0.47594 -0.01607,0.0649 -0.0379,0.15416 -0.05219,0.21135 -0.04939,0.19049 -0.0739,0.28904 -0.0739,0.29611 0,0.0353 0.04194,0.0745 0.126608,0.11679 0.08467,0.0494 0.183732,0.0881 0.296622,0.11627 0.112887,0.0353 0.208158,0.0527 0.285771,0.0527 0.126998,-0.35278 0.289237,-0.70176 0.486791,-1.04748 0.20461,-0.35277 0.419661,-0.67018 0.645435,-0.9524 0.23284,-0.28928 0.45168,-0.52228 0.6563,-0.69866 0.21166,-0.17639 0.39133,-0.26459 0.5395,-0.26459 0.0776,0 0.13422,0.0283 0.1695,0.0847 0.0353,0.0564 0.0532,0.13377 0.0532,0.23255 0,0.16228 -0.0354,0.36369 -0.10593,0.60358 -0.0706,0.23283 -0.15168,0.47239 -0.2434,0.71933 -0.0917,0.23989 -0.17284,0.45166 -0.24339,0.63511 -0.0706,0.18347 -0.10594,0.30705 -0.10594,0.37052 0,0.0635 0.0387,0.11304 0.11627,0.14831 0.0776,0.0423 0.16581,0.0739 0.26458,0.0951 0.10584,0.0212 0.19075,0.032 0.25425,0.032 0.0776,-0.127 0.16581,-0.28267 0.26459,-0.46612 0.0988,-0.1905 0.2044,-0.37017 0.31729,-0.5395 0.3175,-0.47272 0.58208,-0.83258 0.79375,-1.07952 0.21872,-0.24695 0.40926,-0.37052 0.57154,-0.37052 0.0705,0 0.12717,0.025 0.1695,0.0744 0.0494,0.0423 0.0739,0.12345 0.0739,0.2434 0,0.127 -0.0245,0.27128 -0.0739,0.43356 -0.0494,0.15522 -0.0989,0.31419 -0.14831,0.47646 -0.0494,0.16228 -0.0739,0.32451 -0.0739,0.48679 0,0.22577 0.067,0.4196 0.20102,0.58188 0.13397,0.16216 0.339033,0.24329 0.613923,0.2434 0.31023,-1.2e-4 0.58552,-0.10196 0.82527,-0.30645 0.0895,-0.0737 0.17307,-0.15697 0.25373,-0.24443 -0.006,0.0162 -0.0283,0.0666 -0.03,0.0749 0.0847,0.1129 0.18701,0.19021 0.30696,0.23255 0.11994,0.0494 0.2468,0.0744 0.38085,0.0744 0.13406,-0.22578 0.29302,-0.48001 0.47646,-0.76222 0.18344,-0.28222 0.37727,-0.55389 0.58188,-0.81494 0.21166,-0.26106 0.42723,-0.47611 0.64595,-0.64544 0.22578,-0.17639 0.44411,-0.26459 0.65577,-0.26459 0.0988,0 0.1837,0.0316 0.25425,0.0951 0.0776,0.0565 0.11627,0.16259 0.11627,0.31781 0,0.14817 -0.0245,0.30333 -0.0739,0.46561 -0.0494,0.16227 -0.0989,0.32451 -0.14832,0.48679 -0.0494,0.15522 -0.0739,0.3033 -0.0739,0.44441 0,0.21167 0.0702,0.38478 0.21136,0.51884 0.14816,0.14111 0.35993,0.21135 0.6351,0.21135 0.28222,0 0.53645,-0.0844 0.76223,-0.25373 0.23283,-0.17639 0.4408,-0.40611 0.62425,-0.68833 0.1905,-0.28927 0.35981,-0.60667 0.50798,-0.95239 l -0.17984,-0.1478 c -0.127,0.254 -0.27508,0.50771 -0.44441,0.76171 -0.16228,0.24694 -0.33539,0.45164 -0.51884,0.61392 -0.18344,0.16227 -0.35983,0.24339 -0.52916,0.24339 -0.0635,0 -0.12339,-0.0212 -0.17984,-0.0636 -0.0494,-0.0494 -0.0739,-0.13051 -0.0739,-0.2434 0,-0.15522 0.0316,-0.31417 0.0951,-0.47645 0.0706,-0.16228 0.14132,-0.33488 0.21187,-0.51832 0.0706,-0.18344 0.10542,-0.38106 0.10542,-0.59273 0,-0.24694 -0.074,-0.47286 -0.2222,-0.67747 -0.14112,-0.20461 -0.36324,-0.30696 -0.66663,-0.30696 -0.23989,0 -0.47945,0.0708 -0.71934,0.21187 -0.23283,0.13406 -0.45875,0.31045 -0.67747,0.52917 -0.21873,0.21872 -0.42014,0.45172 -0.60359,0.69866 0.0564,-0.21166 0.0989,-0.39892 0.12713,-0.5612 0.0353,-0.16933 0.0532,-0.29619 0.0532,-0.38086 0,-0.21167 -0.12358,-0.31729 -0.37052,-0.31729 -0.11289,0 -0.22232,0.0278 -0.32815,0.0842 -0.0988,0.0564 -0.17282,0.11303 -0.22221,0.1695 0,0.22578 -0.0354,0.47621 -0.10594,0.75137 -0.0364,0.14182 -0.0758,0.28085 -0.11782,0.41704 -0.0677,0.12895 -0.14144,0.26121 -0.22272,0.3979 -0.14817,0.254 -0.31041,0.46906 -0.48679,0.64544 -0.17639,0.17639 -0.35986,0.26458 -0.55036,0.26458 -0.10583,0 -0.17608,-0.0283 -0.21136,-0.0847 -0.0353,-0.0635 -0.0532,-0.13047 -0.0532,-0.20102 0,-0.127 0.0283,-0.27836 0.0847,-0.45476 0.0635,-0.18344 0.12338,-0.37399 0.17983,-0.57154 0.0635,-0.20461 0.0956,-0.39895 0.0956,-0.58239 0,-0.19756 -0.0528,-0.37723 -0.15864,-0.5395 -0.10584,-0.16934 -0.29638,-0.25425 -0.571553,-0.25425 -0.20461,0 -0.39895,0.0495 -0.58239,0.14831 -0.18344,0.0988 -0.35604,0.23271 -0.51832,0.40204 -0.15522,0.16227 -0.30002,0.34246 -0.43408,0.54002 0.0423,-0.11995 0.0739,-0.22229 0.0951,-0.30696 0.0282,-0.0917 0.0494,-0.17991 0.0636,-0.26458 0.0141,-0.0917 0.0212,-0.18371 0.0212,-0.27544 0,-0.21872 -0.0457,-0.41961 -0.13746,-0.60306 -0.0917,-0.19049 -0.26811,-0.28577 -0.52917,-0.28577 z m 25.337993,0.17983 c 0.0776,0 0.1266,0.018 0.14779,0.0532 0.0282,0.0282 0.0424,0.0707 0.0424,0.12712 0,0.18344 -0.0632,0.36311 -0.19017,0.53951 -0.127,0.16932 -0.29304,0.33156 -0.49764,0.48679 -0.19756,0.14816 -0.40933,0.2821 -0.63511,0.40204 -0.21872,0.11289 -0.42669,0.20488 -0.62425,0.27544 0.0776,-0.22578 0.18324,-0.44791 0.31729,-0.66663 0.13407,-0.22578 0.28215,-0.43048 0.44442,-0.61392 0.16933,-0.18344 0.33917,-0.32825 0.5085,-0.43408 0.17638,-0.11289 0.33862,-0.1695 0.48679,-0.1695 z m 3.48144,0.13798 c 0.0776,0 0.13096,0.0174 0.15917,0.0527 0.0282,0.0282 0.0424,0.0848 0.0424,0.1695 0,0.1905 -0.0604,0.36688 -0.18035,0.52916 -0.11994,0.15522 -0.27131,0.29623 -0.45475,0.42323 -0.18345,0.127 -0.38107,0.23971 -0.59273,0.33849 -0.20445,0.0917 -0.39857,0.16962 -0.58188,0.23306 0.0988,-0.30339 0.23599,-0.58592 0.41238,-0.84698 0.17639,-0.26811 0.37072,-0.48316 0.58239,-0.64544 0.21167,-0.16933 0.41585,-0.25373 0.6134,-0.25373 z m -34.528127,4.07417 c -0.246944,0.56445 -0.4903,0.98799 -0.730187,1.27021 -0.23989,0.28221 -0.426635,0.42323 -0.560689,0.42323 -0.07055,0 -0.123367,-0.0316 -0.158647,-0.0951 -0.02822,-0.0635 -0.04237,-0.13047 -0.04237,-0.20102 0,-0.17639 0.07732,-0.3495 0.232544,-0.51883 0.155221,-0.16933 0.345763,-0.33157 0.57154,-0.4868 0.232834,-0.14816 0.462037,-0.27881 0.687814,-0.3917 z"
         style="stroke-width:0.264583;fill:#ffffff"
         id="path14" />
    </g>
  </g>
</svg>
